<svg width="562.5017" height="154.0018" viewBox="0 0 562.5017 154.0018" xmlns="http://www.w3.org/2000/svg">
  <path d="M74.4 13.0018c0-3.8.6-9.8-3.5-11.4v-.2h17.3v.2c-3.9 1.6-3.5 7.7-3.5 11.4v31.1c0 3.7-.5 9.7 3.5 11.3v.2H70.9v-.2c3.9-1.5 3.5-7.6 3.5-11.3v-31.1Zm128 37.2c-3.5 4.8-9 6.8-14.5 6.8-5.2 0-12.2-1.7-15.7-5.8-4.2-4.8-4-10.3-4-16.2v-22c0-3.7.5-9.7-3.5-11.3v-.2H182v.2c-3.9 1.6-3.5 7.6-3.5 11.3v22c0 11 3.5 15.1 11.6 15.1 4.4 0 8-1 10.6-4.8 1.7-2.5 1.4-4.5 1.4-7.5v-24.8c0-3.7.5-9.7-3.5-11.3v-.2h17.3l.1.2c-4 1.6-3.5 7.6-3.5 11.4v31.1c0 3.7-.5 9.7 3.5 11.3v.2h-13.7v-5.5h.1Zm47.9-40c-3.5-3.3-7.3-3.9-11.2-4-4.5 0-9.3 1.5-9.3 7.2 0 9.2 26.5 11.1 26.5 26.4 0 8.8-9.1 17.1-21.4 17.1-5.1.1-10.2-.8-15-2.5l-2.3-10.3c4.6 4.2 10.9 5.4 17 5.9 4.5.3 9.8-1.9 9.8-7.6 0-11.1-26.2-10.6-26.2-28 0-10.4 10.8-14.5 20.4-14.4 3.9 0 7.9.4 11.7 1.2v9Zm27.8 34.7c0 4.7-.1 7.9 4.1 10.5v.2h-18v-.2c3.9-1.6 3.5-7.6 3.5-11.3v-36.8h-5.1c-3.4 0-6.9.9-9.4 3.3h-.3l2.8-9.8h.2c1 .3 2 .5 3 .6h30.5c1.2.1 2.5-.1 3.6-.6h.2l-2.5 9.8h-.2c-1-2.9-4.2-3.3-6.8-3.3h-5.6v37.6Zm204.3 0c0 4.7-.1 7.9 4.1 10.5v.2h-18v-.2c3.9-1.6 3.5-7.6 3.5-11.3v-36.8h-5.7c-3.4 0-6.9.9-9.4 3.3h-.2l2.8-9.8h.2c1 .3 2 .5 3 .6h31.2c1.2.1 2.5-.1 3.6-.6h.2l-2.5 9.8h-.2c-1-2.9-4.2-3.3-6.8-3.3h-5.9l.1 37.6Zm-104.1-.1v.1l-3.5 10.8h-38.1c-1 0-6.9-.2-9.4-4.1l-10.2-12.5-8.2-10.4v15.4c0 3.8-.5 9.8 3.5 11.3v.2H295v-.2c4-1.5 3.5-7.6 3.5-11.3v-31.1c0-3.8.5-9.8-3.5-11.4v-.2h22.3c10.6 0 17.5 6.1 17.5 13.6-.1 7.2-5.4 13.3-12.5 14.5l11.9 14.6c2.4 3.2 5.1 6 8.2 8.4.9-2.1.8-6 .8-8.4v-31.1c0-3.8.2-9.8-3.5-11.4v-.2h27.5c1.3 0 2.9.1 3.9-.4v9.6h-.2c-2.4-3-5.7-3.3-9.3-3.3-2.7 0-5.4.2-8 .6v15.4h9.4c1.2.1 2.4-.1 3.5-.5h.2v8.7h-.2c-1.2-2.4-4.6-2.3-7-2.3h-5.8v19.5l10 1c5.4.5 10.6-1.3 14.6-4.9Zm-69.3-17.5c6.3-1 15.2-4.1 15.3-11.7 0-6-4.6-9.4-9.9-9.2-1.8.1-3.6.4-5.4.7v20.2Zm152.2 17.5v.1l-3.5 10.8h-38.1c-1 0-6.9-.2-9.4-4.1l-10.2-12.5-8.2-10.4v15.4c0 3.8-.5 9.8 3.5 11.3v.2h-17.4v-.2c4-1.5 3.5-7.6 3.5-11.3v-31.1c0-3.8.5-9.8-3.5-11.4v-.2h22.3c10.6 0 17.5 6.1 17.5 13.6-.1 7.2-5.4 13.3-12.5 14.5l11.9 14.6c2.4 3.2 5.1 6 8.2 8.4.9-2.1.8-6 .8-8.4v-31.1c0-3.8.2-9.8-3.5-11.4v-.2h27.5c1.3 0 2.9.1 3.9-.4v9.6h-.2c-2.5-3-5.7-3.3-9.3-3.3-2.7 0-5.4.2-8 .6v15.4h9.4c1.2.1 2.4-.1 3.5-.5h.2v8.7h-.2c-1.2-2.4-4.6-2.3-7-2.3h-5.8v19.5l10 1c5.4.5 10.6-1.3 14.6-4.9Zm-69.3-17.5c6.3-1 15.2-4.1 15.2-11.7 0-6-4.6-9.4-9.9-9.2-1.7.1-3.5.4-5.3.7v20.2Zm-240 22.4c5.1.3 10.2-1.5 13.9-5h.2l-4.1 11h-32.7v-.2c4-1.5 3.5-7.6 3.5-11.3v-31.1c0-3.8.5-9.8-3.5-11.4v-.2h17.4v.2c-4 1.6-3.5 7.7-3.5 11.4v36l8.8.6Zm-36.7 0c5.1.3 10.2-1.5 13.9-5h.2l-4.1 11H92.5v-.2c4-1.5 3.5-7.6 3.5-11.3v-31.1c0-3.8.5-9.8-3.5-11.4v-.2h17.4v.2c-4 1.6-3.5 7.7-3.5 11.4v36l8.8.6Zm-58.7 44.4c3-8.4 6.9-18-.1-21v-.3h18.2l-29.7 81c-8.2-5.1-15.8-6.4-19.1-15.6l-17-48.1c-2.1-6-3.8-12.8-8.8-16.8v-.4h20.3l-.1 1.4c0 2.6 2.1 8.4 3 11l17.9 51.2 15.4-42.4Zm26.1-4.7c0-5.4.8-14-4.9-16.2v-.4h25.2v.4c-5.6 2.2-4.9 11-4.9 16.2v44.4c0 5.3-.7 13.9 4.9 16.1v.4H77.7v-.4c5.6-2.1 4.9-10.8 4.9-16.1v-44.4Zm28.4-.5c0-5.4.8-14-4.9-15.8v-.4H139c25.6 0 41.6 14.6 41.6 38 0 23.2-17 39.4-42.1 39.4h-32.3v-.4c5.6-4 4.9-9.6 4.9-16.6v-44.2h-.1Zm15.4 52c2.7.6 5.4.8 8.2.8 16.7 0 31.1-9.2 31.1-29.5 0-20.6-10.4-31-29.2-31-3.4.1-6.8.5-10.1 1.4v58.3Zm76.2-.6 14.3 1.4c7.6.7 15.1-1.8 20.8-6.9h.3l-5.1 15.4h-50.7v-.4c5.7-2.1 5.1-10.8 5.1-16.1v-44.4c0-5.4.7-14-5.1-16.2v-.4H222c1.9 0 4.4.2 5.9-.6h.3v13.8h-.3c-3.5-4.2-8.7-4.7-13.9-4.7-3.8-.1-7.7.2-11.5.8v21.9h13.4c1.8 0 4.2 0 5.5-.7h.3v12.5h-.3c-1.8-3.4-7.1-3.3-10.6-3.3h-8.3l.1 27.9Zm49.8-5.4c0 6.6-.1 11.3 5.8 15v.4h-20.4v-.4c6-3.6 6-8.4 6-15v-47c0-6.6 0-11.3-5.8-14.8v-.4h21.8v.1c.3 1.1.9 2.1 1.7 2.9l1.6 2.4 35.2 51v-41.1c0-6.6.1-11.3-5.8-14.8v-.4h20.4v.4c-5.8 3.5-5.8 8.2-5.8 14.8v66c-8-2.8-13.5-6.7-18.5-13.4l-36-51.1v45.4h-.2Zm107.1-48.1c-4.4-4.7-9.9-7.4-16.1-7.4-6.2 0-13.9 2.6-13.9 10.8 0 14 36.6 15.9 36.6 37.7 0 12.6-13.2 24.4-30.7 24.4-6.5.1-12.9-1.1-18.9-3.5l-3.3-14.7c6.6 6 13.2 8.8 21.9 8.8 6.4 0 14.9-3.1 14.9-11.3 0-15.9-36.6-15.1-36.6-40 0-14.8 15.7-20.5 29.4-20.5 5.7 0 11.3.9 16.7 2.6v13.1Zm184.2 18.4c10.2 2.2 18.9 9.3 18.8009 20.9 0 9.1-6.0009 16.8-13.5009 20.6-7.9 4-18.3 3.6-26.7 3.6h-45v-.4c5.5-2.6 4.9-3.9 1.9-12.1l-6.4-16.6h-28.3l-5.8 16.6c-2.4 6.6-3.2 10 2.2 12.1v.4h-14.4c-5.5 0-10.7-2.3-12.7-5.1l-26.4-34v22.7c0 5.4-.6 14 5.1 16.2v.4h-25.4v-.4c5.8-2.2 5.1-10.9 5.1-16.2v-44.4c0-5.3.6-13.9-5.1-16.1v-.4h25.5v.4c-5.8 2.1-5.1 10.8-5.1 16.1v19.4l14.4-19.2c3.7-5.6 12.2-12.9 4.7-16.4v-.4h21.7v.1l-27 33.2 24.8 30.9c.4.6.7.7 1.2 1.3l1 .8c1-2.6 1.3-3 2.4-5.9l18.8-49.1c1.6-4.3 3.7-9.2-1.7-11v-.4H470l23.3 60.4c2.3 6.1 4.2 12.1 9.3 15.7 3.7-3.2 3.2-10.4 3.2-15.2v-44.4c0-5.3.8-13.9-4.9-16.1v-.4h29.6c14.9 0 25 6.6 25 17.1 0 7.9-5.4 12.4-11.8 15.3Zm-95.8 6.6h21.5l-10.7-29-10.8 29Zm73.4-30.9-.1 23h3.7c7.3 0 16.9-2.6 16.9-12.2 0-8.1-7.2-12.3-13.9-11.6l-6.6.8Zm8.8 60.9c9.3.9 18.6-3.6 18.6-14.7 0-11.4-10.6-16.4-20.5-15.8l-7 .5v29.1l8.9.9Z" fill="#000" fill-rule="nonzero"/>
</svg>