
<svg xmlns="http://www.w3.org/2000/svg" viewBox="0 0 652 170" class="logopath"><title>Logo Main</title> <path d="M117.5,21.8 C117.5,18 118.1,12 114,10.4 L114,10.2 L131.3,10.2 L131.3,10.4 C127.4,12 127.8,18.1
      127.8,21.8 L127.8,52.9 C127.8,56.6 127.3,62.6 131.3,64.2 L131.3,64.4 L114,64.4 L114,64.2 C117.9,62.7 117.5,56.6
      117.5,52.9 L117.5,21.8 Z M245.5,59 C242,63.8 236.5,65.8 231,65.8 C225.8,65.8 218.8,64.1 215.3,60 C211.1,55.2
      211.3,49.7 211.3,43.8 L211.3,21.8 C211.3,18.1 211.8,12.1 207.8,10.5 L207.8,10.3 L225.1,10.3 L225.1,10.5
      C221.2,12.1 221.6,18.1 221.6,21.8 L221.6,43.8 C221.6,54.8 225.1,58.9 233.2,58.9 C237.6,58.9 241.2,57.9
      243.8,54.1 C245.5,51.6 245.2,49.6 245.2,46.6 L245.2,21.8 C245.2,18.1 245.7,12.1 241.7,10.5 L241.7,10.3
      L259,10.3 L259.1,10.5 C255.1,12.1 255.6,18.1 255.6,21.9 L255.6,53 C255.6,56.7 255.1,62.7 259.1,64.3 L259.1,64.5
      L245.4,64.5 L245.4,59 L245.5,59 Z M293.4,19 C289.9,15.7 286.1,15.1 282.2,15 C277.7,15 272.9,16.5 272.9,22.2
      C272.9,31.4 299.4,33.3 299.4,48.6 C299.4,57.4 290.3,65.7 278,65.7 C272.9,65.8 267.8,64.9 263,63.2 L260.7,52.9
      C265.3,57.1 271.6,58.3 277.7,58.8 C282.2,59.1 287.5,56.9 287.5,51.2 C287.5,40.1 261.3,40.6 261.3,23.2
      C261.3,12.8 272.1,8.7 281.7,8.8 C285.6,8.8 289.6,9.2 293.4,10 L293.4,19 Z M321.2,53.7 C321.2,58.4 321.1,61.6
      325.3,64.2 L325.3,64.4 L307.3,64.4 L307.3,64.2 C311.2,62.6 310.8,56.6 310.8,52.9 L310.8,16.1 L305.7,16.1
      C302.3,16.1 298.8,17 296.3,19.4 L296,19.4 L298.8,9.6 L299,9.6 C300,9.9 301,10.1 302,10.2 L332.5,10.2 C333.7,10.3
      335,10.1 336.1,9.6 L336.3,9.6 L333.8,19.4 L333.6,19.4 C332.6,16.5 329.4,16.1 326.8,16.1 L321.2,16.1 L321.2,53.7
      Z M525.5,53.7 C525.5,58.4 525.4,61.6 529.6,64.2 L529.6,64.4 L511.6,64.4 L511.6,64.2 C515.5,62.6 515.1,56.6
      515.1,52.9 L515.1,16.1 L509.4,16.1 C506,16.1 502.5,17 500,19.4 L499.8,19.4 L502.6,9.6 L502.8,9.6 C503.8,9.9
      504.8,10.1 505.8,10.2 L537,10.2 C538.2,10.3 539.5,10.1 540.6,9.6 L540.8,9.6 L538.3,19.4 L538.1,19.4 C537.1,16.5
      533.9,16.1 531.3,16.1 L525.4,16.1 L525.5,53.7 Z M421.4,53.6 L421.4,53.7 L417.9,64.5 L379.8,64.5 C378.8,64.5
      372.9,64.3 370.4,60.4 L360.2,47.9 L352,37.5 L352,52.9 C352,56.7 351.5,62.7 355.5,64.2 L355.5,64.4 L338.1,64.4
      L338.1,64.2 C342.1,62.7 341.6,56.6 341.6,52.9 L341.6,21.8 C341.6,18 342.1,12 338.1,10.4 L338.1,10.2 L360.4,10.2
      C371,10.2 377.9,16.3 377.9,23.8 C377.8,31 372.5,37.1 365.4,38.3 L377.3,52.9 C379.7,56.1 382.4,58.9 385.5,61.3
      C386.4,59.2 386.3,55.3 386.3,52.9 L386.3,21.8 C386.3,18 386.5,12 382.8,10.4 L382.8,10.2 L410.3,10.2 C411.6,10.2
      413.2,10.3 414.2,9.8 L414.2,19.4 L414,19.4 C411.6,16.4 408.3,16.1 404.7,16.1 C402,16.1 399.3,16.3 396.7,16.7
      L396.7,32.1 L406.1,32.1 C407.3,32.2 408.5,32 409.6,31.6 L409.8,31.6 L409.8,40.3 L409.6,40.3 C408.4,37.9 405,38
      402.6,38 L396.8,38 L396.8,57.5 L406.8,58.5 C412.2,59 417.4,57.2 421.4,53.6 Z M352.1,36.1 C358.4,35.1 367.3,32
      367.4,24.4 C367.4,18.4 362.8,15 357.5,15.2 C355.7,15.3 353.9,15.6 352.1,15.9 L352.1,36.1 Z M504.3,53.6
      L504.3,53.7 L500.8,64.5 L462.7,64.5 C461.7,64.5 455.8,64.3 453.3,60.4 L443.1,47.9 L434.9,37.5 L434.9,52.9
      C434.9,56.7 434.4,62.7 438.4,64.2 L438.4,64.4 L421,64.4 L421,64.2 C425,62.7 424.5,56.6 424.5,52.9 L424.5,21.8
      C424.5,18 425,12 421,10.4 L421,10.2 L443.3,10.2 C453.9,10.2 460.8,16.3 460.8,23.8 C460.7,31 455.4,37.1
      448.3,38.3 L460.2,52.9 C462.6,56.1 465.3,58.9 468.4,61.3 C469.3,59.2 469.2,55.3 469.2,52.9 L469.2,21.8 C469.2,18
      469.4,12 465.7,10.4 L465.7,10.2 L493.2,10.2 C494.5,10.2 496.1,10.3 497.1,9.8 L497.1,19.4 L496.9,19.4 C494.4,16.4
      491.2,16.1 487.6,16.1 C484.9,16.1 482.2,16.3 479.6,16.7 L479.6,32.1 L489,32.1 C490.2,32.2 491.4,32 492.5,31.6
      L492.7,31.6 L492.7,40.3 L492.5,40.3 C491.3,37.9 487.9,38 485.5,38 L479.7,38 L479.7,57.5 L489.7,58.5 C495.1,59
      500.3,57.2 504.3,53.6 Z M435,36.1 C441.3,35.1 450.2,32 450.2,24.4 C450.2,18.4 445.6,15 440.3,15.2 C438.6,15.3
      436.8,15.6 435,15.9 L435,36.1 Z M195,58.5 C200.1,58.8 205.2,57 208.9,53.5 L209.1,53.5 L205,64.5 L172.3,64.5
      L172.3,64.3 C176.3,62.8 175.8,56.7 175.8,53 L175.8,21.9 C175.8,18.1 176.3,12.1 172.3,10.5 L172.3,10.3
      L189.7,10.3 L189.7,10.5 C185.7,12.1 186.2,18.2 186.2,21.9 L186.2,57.9 L195,58.5 Z M158.3,58.5 C163.4,58.8
      168.5,57 172.2,53.5 L172.4,53.5 L168.3,64.5 L135.6,64.5 L135.6,64.3 C139.6,62.8 139.1,56.7 139.1,53 L139.1,21.9
      C139.1,18.1 139.6,12.1 135.6,10.5 L135.6,10.3 L153,10.3 L153,10.5 C149,12.1 149.5,18.2 149.5,21.9 L149.5,57.9
      L158.3,58.5 Z M99.6,102.9 C102.6,94.5 106.5,84.9 99.5,81.9 L99.5,81.6 L117.7,81.6 L88,162.6 C79.8,157.5
      72.2,156.2 68.9,147 L51.9,98.9 C49.8,92.9 48.1,86.1 43.1,82.1 L43.1,81.7 L63.4,81.7 L63.3,83.1 C63.3,85.7
      65.4,91.5 66.3,94.1 L84.2,145.3 L99.6,102.9 Z M125.7,98.2 C125.7,92.8 126.5,84.2 120.8,82 L120.8,81.6 L146,81.6
      L146,82 C140.4,84.2 141.1,93 141.1,98.2 L141.1,142.6 C141.1,147.9 140.4,156.5 146,158.7 L146,159.1 L120.8,159.1
      L120.8,158.7 C126.4,156.6 125.7,147.9 125.7,142.6 L125.7,98.2 Z M154.1,97.7 C154.1,92.3 154.9,83.7 149.2,81.9
      L149.2,81.5 L182.1,81.5 C207.7,81.5 223.7,96.1 223.7,119.5 C223.7,142.7 206.7,158.9 181.6,158.9 L149.3,158.9
      L149.3,158.5 C154.9,154.5 154.2,148.9 154.2,141.9 L154.2,97.7 L154.1,97.7 Z M169.5,149.7 C172.2,150.3
      174.9,150.5 177.7,150.5 C194.4,150.5 208.8,141.3 208.8,121 C208.8,100.4 198.4,90 179.6,90 C176.2,90.1 172.8,90.5
      169.5,91.4 L169.5,149.7 Z M245.7,149.1 L260,150.5 C267.6,151.2 275.1,148.7 280.8,143.6 L281.1,143.6 L276,159
      L225.3,159 L225.3,158.6 C231,156.5 230.4,147.8 230.4,142.5 L230.4,98.1 C230.4,92.7 231.1,84.1 225.3,81.9
      L225.3,81.5 L265.1,81.5 C267,81.5 269.5,81.7 271,80.9 L271.3,80.9 L271.3,94.7 L271,94.7 C267.5,90.5 262.3,90
      257.1,90 C253.3,89.9 249.4,90.2 245.6,90.8 L245.6,112.7 L259,112.7 C260.8,112.7 263.2,112.7 264.5,112 L264.8,112
      L264.8,124.5 L264.5,124.5 C262.7,121.1 257.4,121.2 253.9,121.2 L245.6,121.2 L245.7,149.1 Z M295.5,143.7
      C295.5,150.3 295.4,155 301.3,158.7 L301.3,159.1 L280.9,159.1 L280.9,158.7 C286.9,155.1 286.9,150.3 286.9,143.7
      L286.9,96.7 C286.9,90.1 286.9,85.4 281.1,81.9 L281.1,81.5 L302.9,81.5 L302.9,81.6 C303.2,82.7 303.8,83.7
      304.6,84.5 L306.2,86.9 L341.4,137.9 L341.4,96.8 C341.4,90.2 341.5,85.5 335.6,82 L335.6,81.6 L356,81.6 L356,82
      C350.2,85.5 350.2,90.2 350.2,96.8 L350.2,162.8 C342.2,160 336.7,156.1 331.7,149.4 L295.7,98.3 L295.7,143.7
      L295.5,143.7 Z M402.6,95.6 C398.2,90.9 392.7,88.2 386.5,88.2 C380.3,88.2 372.6,90.8 372.6,99 C372.6,113
      409.2,114.9 409.2,136.7 C409.2,149.3 396,161.1 378.5,161.1 C372,161.2 365.6,160 359.6,157.6 L356.3,142.9
      C362.9,148.9 369.5,151.7 378.2,151.7 C384.6,151.7 393.1,148.6 393.1,140.4 C393.1,124.5 356.5,125.3 356.5,100.4
      C356.5,85.6 372.2,79.9 385.9,79.9 C391.6,79.9 397.2,80.8 402.6,82.5 L402.6,95.6 Z M586.8,114 C597,116.2
      605.7,123.3 605.6,134.9 C605.6,144 599.6,151.7 592.1,155.5 C584.2,159.5 573.8,159.1 565.4,159.1 L520.4,159.1
      L520.4,158.7 C525.9,156.1 525.3,154.8 522.3,146.6 L515.9,130 L487.6,130 L481.8,146.6 C479.4,153.2 478.6,156.6
      484,158.7 L484,159.1 L469.6,159.1 C464.1,159.1 458.9,156.8 456.9,154 L430.5,120 L430.5,142.7 C430.5,148.1
      429.9,156.7 435.6,158.9 L435.6,159.3 L410.2,159.3 L410.2,158.9 C416,156.7 415.3,148 415.3,142.7 L415.3,98.3
      C415.3,93 415.9,84.4 410.2,82.2 L410.2,81.8 L435.7,81.8 L435.7,82.2 C429.9,84.3 430.6,93 430.6,98.3 L430.6,117.7
      L445,98.5 C448.7,92.9 457.2,85.6 449.7,82.1 L449.7,81.7 L471.4,81.7 L471.4,81.8 L444.4,115 L469.2,145.9
      C469.6,146.5 469.9,146.6 470.4,147.2 L471.4,148 C472.4,145.4 472.7,145 473.8,142.1 L492.6,93 C494.2,88.7
      496.3,83.8 490.9,82 L490.9,81.6 L513.1,81.6 L536.4,142 C538.7,148.1 540.6,154.1 545.7,157.7 C549.4,154.5
      548.9,147.3 548.9,142.5 L548.9,98.1 C548.9,92.8 549.7,84.2 544,82 L544,81.6 L573.6,81.6 C588.5,81.6 598.6,88.2
      598.6,98.7 C598.6,106.6 593.2,111.1 586.8,114 Z M491,120.6 L512.5,120.6 L501.8,91.6 L491,120.6 Z M564.4,89.7
      L564.3,112.7 L568,112.7 C575.3,112.7 584.9,110.1 584.9,100.5 C584.9,92.4 577.7,88.2 571,88.9 L564.4,89.7 Z
      M573.2,150.6 C582.5,151.5 591.8,147 591.8,135.9 C591.8,124.5 581.2,119.5 571.3,120.1 L564.3,120.6 L564.3,149.7
      L573.2,150.6 Z M0,71.7 L651.3,71.7 L651.3,74.4 L0,74.4 L0,71.7 Z M0,167.2 L651.3,167.2 L651.3,169.9 L0,169.9
      L0,167.2 Z M0,0.2 L651.3,0.2 L651.3,2.9 L0,2.9 L0,0.2 Z"></path></svg>